HIERARCHY
ROOT Hips
{
	OFFSET 0.000000 0.000000 0.000000
	CHANNELS 6 Xposition Yposition Zposition Zrotation Yrotation Xrotation 
	JOINT LHipJoint
	{
		OFFSET 0.000000 0.000000 0.000000
		CHANNELS 3 Zrotation Yrotation Xrotation
		JOINT LeftUpLeg
		{
			OFFSET 1.363060 -1.794630 0.839290
			CHANNELS 3 Zrotation Yrotation Xrotation
			JOINT LeftLeg
			{
				OFFSET 2.448110 -6.726130 0.000000
				CHANNELS 3 Zrotation Yrotation Xrotation
				JOINT LeftFoot
				{
					OFFSET 2.562200 -7.039590 0.000000
					CHANNELS 3 Zrotation Yrotation Xrotation
					JOINT LeftToeBase
					{
						OFFSET 0.157640 -0.433110 2.322550
						CHANNELS 3 Zrotation Yrotation Xrotation
						End Site
						{
							OFFSET 0.000000 0.000000 0.000000
						}
					}
				}
			}
		}
	}
	JOINT RHipJoint
	{
		OFFSET 0.000000 0.000000 0.000000
		CHANNELS 3 Zrotation Yrotation Xrotation
		JOINT RightUpLeg
		{
			OFFSET -1.305520 -1.794630 0.839290
			CHANNELS 3 Zrotation Yrotation Xrotation
			JOINT RightLeg
			{
				OFFSET -2.542530 -6.985550 0.000000
				CHANNELS 3 Zrotation Yrotation Xrotation
				JOINT RightFoot
				{
					OFFSET -2.568260 -7.056230 0.000000
					CHANNELS 3 Zrotation Yrotation Xrotation
					JOINT RightToeBase
					{
						OFFSET -0.164730 -0.452590 2.363150
						CHANNELS 3 Zrotation Yrotation Xrotation
						End Site
						{
							OFFSET 0.000000 0.000000 0.000000
						}
					}
				}
			}
		}
	}
	JOINT LowerBack
	{
		OFFSET 0.000000 0.000000 0.000000
		CHANNELS 3 Zrotation Yrotation Xrotation
		JOINT Spine
		{
			OFFSET 0.028270 2.035590 -0.193380
			CHANNELS 3 Zrotation Yrotation Xrotation
			JOINT Spine1
			{
				OFFSET 0.056720 2.048850 -0.042750
				CHANNELS 3 Zrotation Yrotation Xrotation
				JOINT Neck
				{
					OFFSET 0.000000 0.000000 0.000000
					CHANNELS 3 Zrotation Yrotation Xrotation
					JOINT Neck1
					{
						OFFSET -0.054170 1.746240 0.172020
						CHANNELS 3 Zrotation Yrotation Xrotation
						JOINT Head
						{
							OFFSET 0.104070 1.761360 -0.123970
							CHANNELS 3 Zrotation Yrotation Xrotation
							End Site
							{
								OFFSET 0.000000 0.000000 0.000000
							}
						}
					}
				}
				JOINT LeftShoulder
				{
					OFFSET 0.000000 0.000000 0.000000
					CHANNELS 3 Zrotation Yrotation Xrotation
					JOINT LeftArm
					{
						OFFSET 3.362410 1.200890 -0.311210
						CHANNELS 3 Zrotation Yrotation Xrotation
						JOINT LeftForeArm
						{
							OFFSET 4.983000 -0.000000 -0.000000
							CHANNELS 3 Zrotation Yrotation Xrotation
							JOINT LeftHand
							{
								OFFSET 3.483560 -0.000000 -0.000000
								CHANNELS 3 Zrotation Yrotation Xrotation
								JOINT LeftFingerBase
								{
									OFFSET 0.000000 0.000000 0.000000
									CHANNELS 3 Zrotation Yrotation Xrotation
									JOINT LeftHandIndex1
									{
										OFFSET 0.715260 -0.000000 -0.000000
										CHANNELS 3 Zrotation Yrotation Xrotation
										End Site
										{
											OFFSET 0.000000 0.000000 0.000000
										}
									}
								}
								JOINT LThumb
								{
									OFFSET 0.000000 0.000000 0.000000
									CHANNELS 3 Zrotation Yrotation Xrotation
									End Site
									{
										OFFSET 0.000000 0.000000 0.000000
									}
								}
							}
						}
					}
				}
				JOINT RightShoulder
				{
					OFFSET 0.000000 0.000000 0.000000
					CHANNELS 3 Zrotation Yrotation Xrotation
					JOINT RightArm
					{
						OFFSET -3.136600 1.374050 -0.404650
						CHANNELS 3 Zrotation Yrotation Xrotation
						JOINT RightForeArm
						{
							OFFSET -5.241900 -0.000000 -0.000000
							CHANNELS 3 Zrotation Yrotation Xrotation
							JOINT RightHand
							{
								OFFSET -3.444170 -0.000000 -0.000000
								CHANNELS 3 Zrotation Yrotation Xrotation
								JOINT RightFingerBase
								{
									OFFSET 0.000000 0.000000 0.000000
									CHANNELS 3 Zrotation Yrotation Xrotation
									JOINT RightHandIndex1
									{
										OFFSET -0.622530 -0.000000 -0.000000
										CHANNELS 3 Zrotation Yrotation Xrotation
										End Site
										{
											OFFSET 0.000000 0.000000 0.000000
										}
									}
								}
								JOINT RThumb
								{
									OFFSET 0.000000 0.000000 0.000000
									CHANNELS 3 Zrotation Yrotation Xrotation
									End Site
									{
										OFFSET 0.000000 0.000000 0.000000
									}
								}
							}
						}
					}
				}
			}
		}
	}
}
MOTION
Frames: 10
Frame Time: 0.008333
19.111913 17.664462 -0.648084 -178.976627 -82.884374 172.631146 6.491968 1.140815 0.207358 -27.917717 -15.645336 9.835604 -1.321330 6.485836 19.954002 -4.272293 22.157218 -22.922273 0.004000 0.410900 1.129000 -10.166505 -0.154449 -2.777088 35.498174 12.090280 12.092852 -0.077612 -6.505635 18.839408 1.951635 -23.077757 -35.098558 -0.140600 2.416800 -6.659000 -1.746085 1.503967 2.783297 1.979128 2.385882 2.382798 -6.639862 0.936284 3.424329 4.137524 2.487411 -1.112568 9.904396 1.293096 9.364041 -1.248200 1.127800 2.005700 6.652696 4.068760 -0.642897 -96.897756 -1.140325 26.653482 11.774969 -12.732327 -1.858681 -1.774058 -2.828544 4.021942 15.500463 6.984136 3.049900 -7.125000 0.000000 0.000000 -8.696100 40.253000 1.026600 -10.363057 -5.568983 0.468567 104.710469 -3.950856 38.108771 -12.899874 19.733310 -3.714548 0.856853 1.947317 -17.188309 -14.441812 5.239599 -1.010100 7.125000 0.000000 0.000000 8.162600 -26.263700 3.743700 
19.114078 17.668335 -0.649564 -178.064746 -82.865309 171.712075 6.490385 1.155572 0.221806 -27.796612 -15.741121 9.786642 -1.304887 6.531289 20.085631 -4.214834 22.025678 -23.067213 0.004700 0.443300 1.218100 -10.168414 -0.133627 -2.793068 35.659259 12.102643 12.267664 -0.047486 -6.418082 18.609691 1.978779 -23.179257 -35.108367 -0.148500 2.483500 -6.844000 -1.615351 1.470578 2.819582 1.976523 2.341285 2.385099 -6.690946 0.921583 3.437870 4.151212 2.506477 -1.180718 9.932050 1.310447 9.371391 -1.232200 1.138800 2.028800 6.665851 4.055462 -0.648186 -96.891485 -1.185211 26.640676 11.835993 -12.868655 -1.919860 -2.015825 -2.406858 3.745653 16.513631 4.555100 2.365100 -7.125000 0.000000 0.000000 -7.145100 37.408500 1.343200 -10.356101 -5.546661 0.472622 104.755647 -3.851543 38.200813 -12.838570 19.621059 -3.675389 0.881519 1.912280 -17.220428 -14.405432 5.533781 -1.103300 7.125000 0.000000 0.000000 8.160300 -25.919300 3.809000 
19.116014 17.668905 -0.649564 -178.032054 -82.868052 171.673704 6.490926 1.156533 0.224125 -27.806139 -15.796024 9.826045 -1.310280 6.519373 20.057334 -4.208965 22.020049 -23.102669 0.007500 0.559800 1.538400 -10.172230 -0.127089 -2.789366 35.688963 12.167596 12.262628 -0.050410 -6.431384 18.643325 1.991574 -23.236872 -35.127885 -0.146500 2.466600 -6.797000 -1.608999 1.467876 2.855747 1.976182 2.338030 2.378861 -6.673074 0.916877 3.396377 4.123917 2.496282 -1.158937 9.930898 1.297845 9.375130 -1.227900 1.132900 2.027100 6.705595 4.038587 -0.661698 -96.981146 -1.230110 26.845677 11.982205 -13.152025 -2.014198 -2.099737 -2.276695 2.932115 16.982599 3.478857 2.029600 -7.125000 0.000000 0.000000 -6.492500 36.163900 1.417800 -10.368308 -5.530801 0.477388 104.751168 -3.865534 38.119347 -12.821633 19.600603 -3.669547 0.886788 1.887240 -17.120889 -14.300101 5.689402 -1.145500 7.125000 0.000000 0.000000 8.233400 -25.736900 3.879200 
19.113280 17.666627 -0.647856 -178.748188 -82.925591 172.388734 6.494375 1.141372 0.218191 -27.911557 -15.745750 9.826630 -1.310001 6.520579 20.053639 -4.209721 22.010711 -23.053534 0.006300 0.511500 1.405600 -10.159769 -0.151038 -2.788540 35.519193 12.044736 12.223963 -0.054730 -6.427699 18.642011 1.982647 -23.165015 -35.067671 -0.148200 2.480600 -6.835700 -1.680467 1.463380 2.815755 1.968508 2.332728 2.375510 -6.676017 0.915795 3.405218 4.128503 2.491962 -1.163012 9.917020 1.296945 9.411357 -1.234900 1.136600 2.042700 6.692804 4.083769 -0.661231 -96.964242 -1.058886 26.585846 11.910662 -13.049610 -1.983675 -2.243273 -2.028750 3.907981 17.451708 2.446517 1.661500 -7.125000 0.000000 0.000000 -5.873500 34.896900 1.463500 -10.372888 -5.563183 0.474030 104.738316 -3.903488 38.022076 -12.846663 19.642325 -3.685552 0.850762 1.929834 -16.883059 -14.321341 5.201397 -0.992600 7.125000 0.000000 0.000000 8.270300 -26.295500 3.787800 
19.113166 17.666513 -0.647172 -178.992284 -82.950718 172.629343 6.494807 1.137536 0.215626 -27.947718 -15.736652 9.856785 -1.316726 6.502085 20.004798 -4.211545 22.008261 -23.029196 0.006300 0.513900 1.412000 -10.157534 -0.158729 -2.785904 35.466799 12.015291 12.176726 -0.064079 -6.453673 18.711282 1.976514 -23.136749 -35.057340 -0.152200 2.514000 -6.928500 -1.700365 1.456584 2.811105 1.963302 2.323764 2.375390 -6.673903 0.913049 3.404256 4.128715 2.496584 -1.166156 9.907934 1.304521 9.419480 -1.238100 1.141300 2.047800 6.706625 4.099273 -0.668167 -96.990444 -0.968632 26.500476 11.953585 -13.155468 -2.016635 -2.348655 -1.844408 4.143001 17.887295 1.459950 1.292500 -7.125000 0.000000 0.000000 -5.322700 33.704900 1.479700 -10.376772 -5.572191 0.475982 104.736698 -3.890880 37.934518 -12.836823 19.620754 -3.678996 0.834585 1.940657 -16.674968 -14.292036 4.990155 -0.925100 7.125000 0.000000 0.000000 8.320400 -26.532300 3.764600 
19.113166 17.666285 -0.646489 -179.365497 -82.976841 172.994994 6.495637 1.131467 0.211189 -28.001773 -15.719582 9.895880 -1.325851 6.477458 19.938321 -4.222083 22.029029 -22.991176 0.005900 0.495800 1.362400 -10.154885 -0.169460 -2.781903 35.394862 11.981801 12.115456 -0.076448 -6.487948 18.803033 1.971931 -23.108145 -35.039094 -0.158200 2.563100 -7.064800 -1.739354 1.452820 2.806821 1.957140 2.318419 2.376406 -6.665249 0.911667 3.404049 4.136602 2.503850 -1.166867 9.891171 1.315963 9.420534 -1.247300 1.147000 2.049700 6.721131 4.115115 -0.675204 -97.015829 -0.867718 26.415608 11.998603 -13.264809 -2.048850 -2.419895 -1.718117 4.401819 18.193418 0.794200 1.031300 -7.125000 0.000000 0.000000 -4.955900 32.898600 1.474100 -10.379726 -5.582909 0.478101 104.733187 -3.875638 37.832213 -12.827423 19.597988 -3.672124 0.816288 1.953660 -16.444682 -14.262079 4.748824 -0.848500 7.125000 0.000000 0.000000 8.375300 -26.803300 3.736100 
19.113508 17.666285 -0.646033 -179.815818 -82.998852 173.435409 6.497124 1.123298 0.206219 -28.068033 -15.704792 9.933768 -1.334001 6.456411 19.880587 -4.231186 22.049948 -22.962944 0.005500 0.479400 1.317200 -10.151500 -0.181282 -2.778150 35.315671 11.950716 12.069866 -0.086808 -6.513688 18.874347 1.972548 -23.093747 -35.014957 -0.166600 2.629800 -7.249900 -1.791972 1.450088 2.808951 1.949765 2.314670 2.378070 -6.654045 0.910479 3.403903 4.152877 2.510281 -1.174200 9.869374 1.326434 9.420447 -1.261000 1.152300 2.053600 6.733579 4.128385 -0.681571 -97.034456 -0.777397 26.342375 12.037608 -13.358921 -2.075404 -2.464982 -1.639905 4.638527 18.397398 0.390901 0.869100 -7.125000 0.000000 0.000000 -4.723700 32.410800 1.460300 -10.380372 -5.591645 0.479917 104.731617 -3.854103 37.740250 -12.815489 19.569864 -3.663174 0.801522 1.962935 -16.235293 -14.232281 4.551708 -0.786400 7.125000 0.000000 0.000000 8.425400 -27.023400 3.714800 
19.114192 17.666399 -0.646033 179.695593 -83.014573 173.910991 6.498768 1.114586 0.200650 -28.140815 -15.696031 9.983235 -1.343918 6.430675 19.811945 -4.236866 22.063030 -22.941576 0.006000 0.501900 1.379200 -10.149033 -0.191813 -2.772932 35.242893 11.943685 12.027573 -0.098184 -6.543325 18.956899 1.968857 -23.079191 -35.012063 -0.175200 2.696100 -7.433900 -1.852993 1.448966 2.816572 1.941478 2.313293 2.380291 -6.641806 0.909275 3.404050 4.173240 2.511862 -1.188303 9.847120 1.330208 9.424444 -1.276400 1.155000 2.061400 6.744700 4.135733 -0.687388 -97.048743 -0.717498 26.310159 12.075581 -13.443429 -2.098795 -2.486004 -1.613574 4.750962 18.512340 0.235423 0.809200 -7.125000 0.000000 0.000000 -4.604000 32.229100 1.443300 -10.379509 -5.595566 0.481489 104.733976 -3.829682 37.663381 -12.802165 19.540500 -3.653918 0.792794 1.965147 -16.072848 -14.198171 4.441953 -0.751400 7.125000 0.000000 0.000000 8.468800 -27.144200 3.710100 
19.114875 17.666513 -0.646147 179.155179 -83.028442 174.439858 6.501066 1.104611 0.194700 -28.224466 -15.696987 10.041338 -1.354597 6.403460 19.739562 -4.237648 22.063946 -22.927972 0.007800 0.571000 1.569200 -10.146315 -0.201791 -2.766658 35.168639 11.952066 11.989975 -0.109721 -6.573006 19.041220 1.957135 -23.052818 -35.032438 -0.182300 2.750200 -7.584000 -1.922864 1.448618 2.822322 1.933001 2.313451 2.382551 -6.629514 0.907437 3.408186 4.190535 2.508725 -1.209697 9.829205 1.327353 9.435448 -1.289600 1.155300 2.073800 6.750328 4.138760 -0.691188 -97.055765 -0.690941 26.307562 12.097165 -13.488687 -2.110000 -2.493786 -1.619562 4.791521 18.570372 0.253528 0.822300 -7.125000 0.000000 0.000000 -4.554200 32.259400 1.424300 -10.378066 -5.596509 0.482051 104.736879 -3.812457 37.611473 -12.793892 19.523150 -3.648865 0.788320 1.963359 -15.978558 -14.163368 4.402765 -0.738100 7.125000 0.000000 0.000000 8.503700 -27.185800 3.717300 
19.115331 17.666399 -0.646489 178.644842 -83.039819 174.940844 6.503698 1.095008 0.189170 -28.305954 -15.703919 10.097859 -1.364347 6.378609 19.673661 -4.235565 22.056655 -22.916476 0.010800 0.670100 1.841500 -10.143407 -0.210368 -2.760496 35.099981 11.966943 11.958523 -0.119873 -6.598912 19.115942 1.938664 -23.012964 -35.067466 -0.187200 2.786600 -7.685200 -1.989602 1.447376 2.821296 1.925708 2.313195 2.384390 -6.618778 0.904745 3.417871 4.198580 2.505132 -1.237449 9.819379 1.323638 9.452479 -1.297000 1.155900 2.089900 6.750555 4.139334 -0.693129 -97.056306 -0.688670 26.322168 12.102141 -13.495661 -2.108809 -2.495620 -1.646613 4.797369 18.601641 0.394814 0.888100 -7.125000 0.000000 0.000000 -4.540200 32.439800 1.400100 -10.377168 -5.595757 0.481510 104.736584 -3.804124 37.594822 -12.792703 19.520965 -3.649121 0.786537 1.960969 -15.954736 -14.137690 4.405026 -0.737700 7.125000 0.000000 0.000000 8.525500 -27.182100 3.727700 
